<svg width="220" height="219" viewBox="0 0 220 219" fill="none" xmlns="http://www.w3.org/2000/svg">
<path d="M113.727 8.76136L111.511 8.89773C111.473 8.70833 111.392 8.53788 111.267 8.38636C111.142 8.23106 110.977 8.10795 110.773 8.01705C110.572 7.92235 110.331 7.875 110.051 7.875C109.676 7.875 109.36 7.95455 109.102 8.11364C108.845 8.26894 108.716 8.47727 108.716 8.73864C108.716 8.94697 108.799 9.12311 108.966 9.26705C109.133 9.41098 109.419 9.52652 109.824 9.61364L111.403 9.93182C112.252 10.1061 112.884 10.3864 113.301 10.7727C113.718 11.1591 113.926 11.6667 113.926 12.2955C113.926 12.8674 113.758 13.3693 113.42 13.8011C113.087 14.233 112.629 14.5701 112.045 14.8125C111.466 15.0511 110.797 15.1705 110.04 15.1705C108.884 15.1705 107.964 14.9299 107.278 14.4489C106.597 13.964 106.197 13.3049 106.08 12.4716L108.46 12.3466C108.532 12.6989 108.706 12.9678 108.983 13.1534C109.259 13.3352 109.614 13.4261 110.045 13.4261C110.47 13.4261 110.811 13.3447 111.068 13.1818C111.33 13.0152 111.462 12.8011 111.466 12.5398C111.462 12.3201 111.369 12.1402 111.188 12C111.006 11.8561 110.725 11.7462 110.347 11.6705L108.835 11.3693C107.983 11.1989 107.348 10.9034 106.932 10.483C106.519 10.0625 106.312 9.52652 106.312 8.875C106.312 8.31439 106.464 7.83144 106.767 7.42614C107.074 7.02083 107.504 6.70833 108.057 6.48864C108.614 6.26894 109.265 6.15909 110.011 6.15909C111.114 6.15909 111.981 6.39205 112.614 6.85795C113.25 7.32386 113.621 7.95833 113.727 8.76136Z" fill="white"/>
<path d="M122.718 16.0309C121.832 15.9142 121.094 15.626 120.505 15.1664C119.92 14.7036 119.501 14.1135 119.248 13.3963C118.999 12.6796 118.932 11.8837 119.047 11.0087C119.163 10.1224 119.437 9.36751 119.866 8.74403C120.3 8.11729 120.859 7.65792 121.544 7.36593C122.228 7.07018 123.008 6.97991 123.883 7.09511C124.638 7.19449 125.281 7.41858 125.812 7.76738C126.343 8.11619 126.741 8.56021 127.006 9.09944C127.271 9.63867 127.377 10.2447 127.323 10.9177L125.058 10.6195C125.051 10.1793 124.928 9.80962 124.688 9.51065C124.453 9.20841 124.116 9.02837 123.676 8.97052C123.304 8.92158 122.966 8.98021 122.662 9.14642C122.361 9.30936 122.109 9.57223 121.905 9.93502C121.7 10.2978 121.562 10.7515 121.49 11.296C121.418 11.8481 121.431 12.3274 121.53 12.734C121.633 13.1411 121.81 13.4643 122.062 13.7037C122.313 13.9431 122.624 14.0872 122.996 14.1362C123.27 14.1723 123.524 14.1483 123.756 14.0643C123.993 13.9808 124.196 13.8415 124.367 13.6462C124.542 13.4476 124.673 13.1992 124.758 12.901L127.022 13.1991C126.898 13.8551 126.641 14.4135 126.252 14.8742C125.867 15.3317 125.374 15.6641 124.773 15.8716C124.173 16.0791 123.488 16.1322 122.718 16.0309Z" fill="white"/>
<path d="M132.494 17.6935L134.752 9.26365L137.019 9.87099L136.625 11.3418L136.713 11.3654C137.007 10.8833 137.37 10.5573 137.804 10.3873C138.239 10.2136 138.692 10.19 139.164 10.3164C139.281 10.3478 139.406 10.3889 139.537 10.4398C139.669 10.4908 139.782 10.5427 139.878 10.5958L139.322 12.6703C139.221 12.608 139.077 12.538 138.89 12.4605C138.703 12.3829 138.529 12.3225 138.368 12.2794C138.024 12.1873 137.696 12.1799 137.385 12.2574C137.079 12.3322 136.812 12.4802 136.584 12.7015C136.36 12.9237 136.202 13.2068 136.11 13.5508L134.832 18.32L132.494 17.6935Z" fill="white"/>
<path d="M146.014 22.3161C145.199 21.9783 144.566 21.513 144.114 20.9201C143.668 20.3252 143.412 19.6496 143.349 18.8933C143.286 18.1335 143.426 17.3407 143.768 16.5148C144.113 15.6819 144.575 15.0207 145.155 14.5311C145.737 14.0381 146.395 13.7408 147.13 13.6393C147.87 13.5358 148.647 13.6529 149.463 13.9907C150.278 14.3284 150.909 14.7947 151.356 15.3897C151.807 15.9826 152.064 16.6589 152.127 17.4187C152.19 18.1749 152.05 18.9695 151.705 19.8024C151.363 20.6283 150.901 21.2878 150.32 21.7808C149.74 22.2704 149.08 22.5669 148.34 22.6705C147.605 22.772 146.83 22.6538 146.014 22.3161ZM146.742 20.5882C147.113 20.7418 147.467 20.7651 147.802 20.658C148.139 20.5475 148.446 20.3346 148.725 20.0193C149.006 19.7055 149.244 19.3141 149.438 18.8452C149.633 18.3762 149.741 17.9312 149.764 17.5101C149.79 17.0905 149.723 16.7225 149.563 16.4061C149.403 16.0897 149.138 15.8547 148.767 15.701C148.392 15.5459 148.033 15.5222 147.689 15.6299C147.349 15.739 147.038 15.9504 146.756 16.2642C146.478 16.5795 146.242 16.9716 146.047 17.4406C145.853 17.9095 145.743 18.3538 145.717 18.7734C145.694 19.1945 145.764 19.564 145.928 19.8818C146.096 20.1976 146.368 20.433 146.742 20.5882Z" fill="white"/>
<path d="M164.269 18.2764L158.451 28.3538L156.354 27.1436L162.173 17.0662L164.269 18.2764Z" fill="white"/>
<path d="M175.712 26.1403L168.628 35.3721L166.708 33.8986L173.791 24.6668L175.712 26.1403Z" fill="white"/>
<path d="M184.361 51.4094C183.958 50.8835 183.727 50.3034 183.67 49.6692C183.619 49.0356 183.762 48.3912 184.099 47.7359C184.442 47.0814 185 46.4578 185.772 45.8652C186.565 45.2564 187.323 44.878 188.045 44.7299C188.77 44.5795 189.425 44.6158 190.012 44.8389C190.604 45.0627 191.095 45.4286 191.484 45.9364C191.782 46.3241 191.964 46.6979 192.03 47.0578C192.101 47.4184 192.1 47.7532 192.027 48.0624C191.959 48.3723 191.864 48.6407 191.743 48.8679L191.788 48.9265L195.259 46.2631L196.729 48.1789L187.497 55.2627L186.044 53.3694L187.153 52.5185L187.091 52.4374C186.829 52.4948 186.54 52.5135 186.224 52.4935C185.913 52.4742 185.596 52.3811 185.272 52.2142C184.951 52.0503 184.647 51.782 184.361 51.4094ZM186.356 50.8454C186.594 51.1549 186.878 51.3518 187.21 51.436C187.548 51.521 187.914 51.5029 188.308 51.3819C188.704 51.2639 189.108 51.047 189.52 50.731C189.932 50.4151 190.245 50.0836 190.461 49.7365C190.677 49.3894 190.785 49.0443 190.784 48.7011C190.783 48.3579 190.664 48.0316 190.427 47.722C190.184 47.4065 189.895 47.2063 189.557 47.1213C189.22 47.0364 188.857 47.0548 188.468 47.1765C188.079 47.2982 187.685 47.5124 187.285 47.8191C186.883 48.1281 186.569 48.4569 186.345 48.8056C186.126 49.155 186.011 49.5033 186.001 49.8504C185.996 50.1982 186.114 50.5299 186.356 50.8454Z" fill="white"/>
<path d="M191.646 62.2565C191.205 61.4922 190.986 60.7374 190.989 59.9922C190.997 59.2485 191.205 58.5571 191.615 57.9182C192.028 57.2774 192.622 56.7335 193.396 56.2865C194.176 55.8358 194.946 55.5927 195.704 55.5574C196.465 55.5202 197.169 55.685 197.813 56.0519C198.463 56.4202 199.009 56.9865 199.45 57.7508C199.892 58.5152 200.108 59.2692 200.1 60.013C200.098 60.7582 199.89 61.4511 199.477 62.092C199.067 62.7309 198.472 63.2757 197.691 63.7265C196.917 64.1734 196.149 64.4155 195.388 64.4528C194.63 64.4881 193.926 64.3216 193.276 63.9533C192.631 63.5864 192.088 63.0208 191.646 62.2565ZM193.276 61.3288C193.477 61.6766 193.743 61.9101 194.074 62.0293C194.408 62.1467 194.782 62.165 195.195 62.0842C195.609 62.0068 196.036 61.8411 196.476 61.5873C196.915 61.3335 197.272 61.0465 197.547 60.7263C197.823 60.4093 197.994 60.0766 198.06 59.7282C198.125 59.3798 198.058 59.0317 197.857 58.684C197.654 58.333 197.384 58.0955 197.045 57.9715C196.709 57.8509 196.333 57.8293 195.919 57.9068C195.506 57.9876 195.08 58.1548 194.641 58.4086C194.201 58.6624 193.843 58.9478 193.567 59.2647C193.292 59.585 193.123 59.921 193.06 60.2727C193.001 60.6258 193.073 60.9778 193.276 61.3288Z" fill="white"/>
<path d="M195.848 69.8141L203.002 64.2801L203.939 66.5426L199.039 70.0358L199.069 70.1093L205.026 69.1672L205.946 71.3877L201.108 74.9414L201.136 75.0096L207.031 74.0071L207.966 76.2643L198.996 77.4151L198.015 75.0477L202.512 71.5615L202.471 71.4617L196.826 72.1763L195.848 69.8141Z" fill="white"/>
<path d="M205.736 82.1771L200.862 83.4829L200.236 81.145L208.666 78.8862L209.263 81.1144L207.776 81.5129L207.802 81.6117C208.342 81.6669 208.814 81.8758 209.217 82.2384C209.624 82.6 209.911 83.0937 210.078 83.7193C210.235 84.3047 210.244 84.8495 210.105 85.3535C209.965 85.8575 209.69 86.294 209.279 86.6629C208.872 87.0309 208.341 87.3026 207.686 87.4781L202.318 88.9163L201.692 86.5783L206.642 85.2518C207.159 85.1173 207.526 84.8777 207.744 84.5332C207.965 84.1877 208.013 83.7807 207.887 83.3124C207.803 82.9977 207.661 82.7378 207.461 82.5326C207.261 82.3311 207.014 82.1974 206.718 82.1316C206.426 82.0685 206.099 82.0837 205.736 82.1771Z" fill="white"/>
<path d="M210.739 113.227L210.602 111.011C210.792 110.973 210.962 110.892 211.114 110.767C211.269 110.642 211.392 110.477 211.483 110.273C211.578 110.072 211.625 109.831 211.625 109.551C211.625 109.176 211.545 108.86 211.386 108.602C211.231 108.345 211.023 108.216 210.761 108.216C210.553 108.216 210.377 108.299 210.233 108.466C210.089 108.633 209.973 108.919 209.886 109.324L209.568 110.903C209.394 111.752 209.114 112.384 208.727 112.801C208.341 113.218 207.833 113.426 207.205 113.426C206.633 113.426 206.131 113.258 205.699 112.92C205.267 112.587 204.93 112.129 204.688 111.545C204.449 110.966 204.33 110.297 204.33 109.54C204.33 108.384 204.57 107.464 205.051 106.778C205.536 106.097 206.195 105.697 207.028 105.58L207.153 107.96C206.801 108.032 206.532 108.206 206.347 108.483C206.165 108.759 206.074 109.114 206.074 109.545C206.074 109.97 206.155 110.311 206.318 110.568C206.485 110.83 206.699 110.962 206.96 110.966C207.18 110.962 207.36 110.869 207.5 110.688C207.644 110.506 207.754 110.225 207.83 109.847L208.131 108.335C208.301 107.483 208.597 106.848 209.017 106.432C209.438 106.019 209.973 105.812 210.625 105.812C211.186 105.812 211.669 105.964 212.074 106.267C212.479 106.574 212.792 107.004 213.011 107.557C213.231 108.114 213.341 108.765 213.341 109.511C213.341 110.614 213.108 111.481 212.642 112.114C212.176 112.75 211.542 113.121 210.739 113.227Z" fill="white"/>
<path d="M203.469 122.218C203.586 121.332 203.874 120.594 204.334 120.005C204.796 119.42 205.386 119.001 206.104 118.748C206.82 118.499 207.616 118.432 208.491 118.547C209.378 118.663 210.132 118.937 210.756 119.366C211.383 119.8 211.842 120.359 212.134 121.044C212.43 121.728 212.52 122.508 212.405 123.383C212.306 124.138 212.081 124.781 211.733 125.312C211.384 125.843 210.94 126.241 210.401 126.506C209.861 126.771 209.255 126.877 208.582 126.823L208.88 124.558C209.321 124.551 209.69 124.428 209.989 124.188C210.292 123.953 210.472 123.616 210.529 123.176C210.578 122.804 210.52 122.466 210.354 122.162C210.191 121.861 209.928 121.609 209.565 121.405C209.202 121.2 208.749 121.062 208.204 120.99C207.652 120.918 207.173 120.931 206.766 121.03C206.359 121.133 206.036 121.31 205.796 121.562C205.557 121.813 205.413 122.124 205.364 122.496C205.328 122.77 205.352 123.024 205.436 123.256C205.519 123.493 205.659 123.696 205.854 123.867C206.052 124.042 206.301 124.173 206.599 124.258L206.301 126.522C205.645 126.398 205.086 126.141 204.626 125.752C204.168 125.367 203.836 124.874 203.628 124.273C203.421 123.673 203.368 122.988 203.469 122.218Z" fill="white"/>
<path d="M201.806 131.994L210.236 134.252L209.629 136.519L208.158 136.125L208.135 136.213C208.617 136.507 208.943 136.87 209.113 137.304C209.286 137.739 209.31 138.192 209.184 138.664C209.152 138.781 209.111 138.906 209.06 139.037C209.009 139.169 208.957 139.282 208.904 139.378L206.83 138.822C206.892 138.721 206.962 138.577 207.04 138.39C207.117 138.203 207.177 138.029 207.221 137.868C207.313 137.524 207.32 137.196 207.243 136.885C207.168 136.579 207.02 136.312 206.799 136.084C206.576 135.86 206.293 135.702 205.949 135.61L201.18 134.332L201.806 131.994Z" fill="white"/>
<path d="M197.184 145.514C197.522 144.699 197.987 144.066 198.58 143.614C199.175 143.168 199.85 142.912 200.607 142.849C201.366 142.786 202.159 142.926 202.985 143.268C203.818 143.613 204.479 144.075 204.969 144.655C205.462 145.237 205.759 145.895 205.861 146.63C205.964 147.37 205.847 148.147 205.509 148.963C205.172 149.778 204.705 150.409 204.11 150.856C203.517 151.307 202.841 151.564 202.081 151.627C201.325 151.69 200.53 151.55 199.698 151.205C198.872 150.863 198.212 150.401 197.719 149.82C197.23 149.24 196.933 148.58 196.83 147.84C196.728 147.105 196.846 146.33 197.184 145.514ZM198.912 146.242C198.758 146.613 198.735 146.967 198.842 147.302C198.952 147.639 199.165 147.946 199.481 148.225C199.794 148.506 200.186 148.744 200.655 148.938C201.124 149.133 201.569 149.241 201.99 149.264C202.409 149.29 202.777 149.223 203.094 149.063C203.41 148.903 203.645 148.638 203.799 148.267C203.954 147.892 203.978 147.533 203.87 147.189C203.761 146.849 203.55 146.538 203.236 146.256C202.92 145.978 202.528 145.742 202.059 145.547C201.59 145.353 201.146 145.243 200.727 145.217C200.305 145.194 199.936 145.264 199.618 145.428C199.302 145.596 199.067 145.868 198.912 146.242Z" fill="white"/>
<path d="M201.224 163.769L191.146 157.951L192.356 155.854L202.434 161.673L201.224 163.769Z" fill="white"/>
<path d="M193.36 175.212L184.128 168.128L185.601 166.208L194.833 173.291L193.36 175.212Z" fill="white"/>
<path d="M168.091 183.861C168.616 183.458 169.197 183.227 169.831 183.17C170.464 183.119 171.109 183.262 171.764 183.599C172.419 183.942 173.042 184.5 173.635 185.272C174.244 186.065 174.622 186.823 174.77 187.545C174.921 188.27 174.884 188.925 174.661 189.512C174.437 190.104 174.071 190.595 173.564 190.984C173.176 191.282 172.802 191.464 172.442 191.53C172.082 191.601 171.747 191.6 171.438 191.527C171.128 191.459 170.859 191.364 170.632 191.243L170.574 191.288L173.237 194.759L171.321 196.229L164.237 186.997L166.131 185.544L166.981 186.653L167.063 186.591C167.005 186.329 166.986 186.04 167.006 185.724C167.026 185.413 167.119 185.096 167.286 184.772C167.45 184.451 167.718 184.147 168.091 183.861ZM168.655 185.856C168.345 186.094 168.148 186.378 168.064 186.71C167.979 187.048 167.997 187.414 168.118 187.808C168.236 188.204 168.453 188.608 168.769 189.02C169.085 189.432 169.416 189.745 169.763 189.961C170.111 190.177 170.456 190.285 170.799 190.284C171.142 190.283 171.468 190.164 171.778 189.927C172.094 189.684 172.294 189.395 172.379 189.057C172.464 188.72 172.445 188.357 172.324 187.968C172.202 187.579 171.988 187.185 171.681 186.785C171.372 186.383 171.043 186.069 170.694 185.845C170.345 185.626 169.997 185.511 169.65 185.501C169.302 185.496 168.97 185.614 168.655 185.856Z" fill="white"/>
<path d="M157.243 191.146C158.008 190.705 158.763 190.486 159.508 190.489C160.252 190.497 160.943 190.705 161.582 191.115C162.223 191.528 162.767 192.122 163.213 192.896C163.664 193.676 163.907 194.446 163.943 195.204C163.98 195.965 163.815 196.669 163.448 197.313C163.08 197.963 162.514 198.509 161.749 198.95C160.985 199.392 160.231 199.608 159.487 199.6C158.742 199.598 158.049 199.39 157.408 198.977C156.769 198.567 156.224 197.972 155.774 197.191C155.327 196.417 155.084 195.649 155.047 194.888C155.012 194.13 155.178 193.426 155.547 192.776C155.914 192.131 156.479 191.588 157.243 191.146ZM158.171 192.776C157.823 192.977 157.59 193.243 157.471 193.574C157.353 193.908 157.335 194.282 157.416 194.695C157.493 195.109 157.659 195.536 157.913 195.976C158.166 196.415 158.453 196.772 158.774 197.047C159.091 197.323 159.423 197.494 159.772 197.56C160.12 197.625 160.468 197.558 160.816 197.357C161.167 197.154 161.405 196.884 161.528 196.545C161.649 196.209 161.671 195.833 161.593 195.419C161.512 195.006 161.345 194.58 161.091 194.141C160.838 193.701 160.552 193.343 160.235 193.067C159.915 192.792 159.579 192.623 159.227 192.56C158.874 192.501 158.522 192.573 158.171 192.776Z" fill="white"/>
<path d="M149.686 195.348L155.22 202.502L152.957 203.439L149.464 198.539L149.391 198.569L150.333 204.526L148.112 205.446L144.559 200.608L144.49 200.636L145.493 206.531L143.236 207.466L142.085 198.496L144.452 197.515L147.939 202.012L148.038 201.971L147.324 196.326L149.686 195.348Z" fill="white"/>
<path d="M137.323 205.236L136.017 200.362L138.355 199.736L140.614 208.166L138.386 208.763L137.987 207.276L137.888 207.302C137.833 207.842 137.624 208.314 137.262 208.717C136.9 209.124 136.406 209.411 135.781 209.578C135.195 209.735 134.651 209.744 134.147 209.605C133.642 209.465 133.206 209.19 132.837 208.779C132.469 208.372 132.197 207.841 132.022 207.186L130.584 201.818L132.922 201.192L134.248 206.142C134.383 206.659 134.622 207.026 134.967 207.244C135.312 207.465 135.719 207.513 136.188 207.387C136.502 207.303 136.762 207.161 136.967 206.961C137.169 206.761 137.303 206.514 137.368 206.218C137.431 205.926 137.416 205.599 137.323 205.236Z" fill="white"/>
<path d="M106.273 210.239L108.489 210.102C108.527 210.292 108.608 210.462 108.733 210.614C108.858 210.769 109.023 210.892 109.227 210.983C109.428 211.078 109.669 211.125 109.949 211.125C110.324 211.125 110.64 211.045 110.898 210.886C111.155 210.731 111.284 210.523 111.284 210.261C111.284 210.053 111.201 209.877 111.034 209.733C110.867 209.589 110.581 209.473 110.176 209.386L108.597 209.068C107.748 208.894 107.116 208.614 106.699 208.227C106.282 207.841 106.074 207.333 106.074 206.705C106.074 206.133 106.242 205.631 106.58 205.199C106.913 204.767 107.371 204.43 107.955 204.188C108.534 203.949 109.203 203.83 109.96 203.83C111.116 203.83 112.036 204.07 112.722 204.551C113.403 205.036 113.803 205.695 113.92 206.528L111.54 206.653C111.468 206.301 111.294 206.032 111.017 205.847C110.741 205.665 110.386 205.574 109.955 205.574C109.53 205.574 109.189 205.655 108.932 205.818C108.67 205.985 108.538 206.199 108.534 206.46C108.538 206.68 108.631 206.86 108.812 207C108.994 207.144 109.275 207.254 109.653 207.33L111.165 207.631C112.017 207.801 112.652 208.097 113.068 208.517C113.481 208.938 113.688 209.473 113.688 210.125C113.688 210.686 113.536 211.169 113.233 211.574C112.926 211.979 112.496 212.292 111.943 212.511C111.386 212.731 110.735 212.841 109.989 212.841C108.886 212.841 108.019 212.608 107.386 212.142C106.75 211.676 106.379 211.042 106.273 210.239Z" fill="white"/>
<path d="M97.2819 202.969C98.1682 203.086 98.9059 203.374 99.4949 203.834C100.08 204.296 100.499 204.886 100.752 205.604C101.001 206.32 101.068 207.116 100.953 207.991C100.837 208.878 100.563 209.632 100.134 210.256C99.6996 210.883 99.1406 211.342 98.4564 211.634C97.7718 211.93 96.992 212.02 96.117 211.905C95.3621 211.806 94.7192 211.581 94.1882 211.233C93.6572 210.884 93.2591 210.44 92.9939 209.901C92.7287 209.361 92.6232 208.755 92.6774 208.082L94.942 208.38C94.9489 208.821 95.0722 209.19 95.3117 209.489C95.547 209.792 95.8844 209.972 96.3238 210.029C96.6956 210.078 97.0338 210.02 97.3384 209.854C97.6387 209.691 97.8911 209.428 98.0955 209.065C98.2999 208.702 98.438 208.249 98.5096 207.704C98.5823 207.152 98.569 206.673 98.4697 206.266C98.3667 205.859 98.1895 205.536 97.9383 205.296C97.6871 205.057 97.3756 204.913 97.0038 204.864C96.7297 204.828 96.4763 204.852 96.2436 204.936C96.0072 205.019 95.8036 205.159 95.6327 205.354C95.4576 205.552 95.3274 205.801 95.2423 206.099L92.9778 205.801C93.1023 205.145 93.3592 204.586 93.7485 204.126C94.1334 203.668 94.6261 203.336 95.2265 203.128C95.8269 202.921 96.5121 202.868 97.2819 202.969Z" fill="white"/>
<path d="M87.5064 201.306L85.2476 209.736L82.981 209.129L83.3751 207.658L83.2873 207.635C82.9934 208.117 82.6296 208.443 82.1958 208.613C81.761 208.786 81.3076 208.81 80.8356 208.684C80.7186 208.652 80.5943 208.611 80.4628 208.56C80.3314 208.509 80.2179 208.457 80.1223 208.404L80.6782 206.33C80.7791 206.392 80.9231 206.462 81.1102 206.54C81.2972 206.617 81.4712 206.677 81.6322 206.721C81.9761 206.813 82.3036 206.82 82.6145 206.743C82.9208 206.668 83.1879 206.52 83.4159 206.299C83.6401 206.076 83.7983 205.793 83.8905 205.449L85.1684 200.68L87.5064 201.306Z" fill="white"/>
<path d="M73.9856 196.684C74.801 197.022 75.4344 197.487 75.8858 198.08C76.3323 198.675 76.5875 199.35 76.6515 200.107C76.7139 200.866 76.5741 201.659 76.232 202.485C75.887 203.318 75.4246 203.979 74.8446 204.469C74.2632 204.962 73.605 205.259 72.87 205.361C72.1302 205.464 71.3525 205.347 70.5371 205.009C69.7217 204.672 69.0908 204.205 68.6443 203.61C68.1929 203.017 67.936 202.341 67.8735 201.581C67.8096 200.825 67.9501 200.03 68.2951 199.198C68.6372 198.372 69.0989 197.712 69.6804 197.219C70.2603 196.73 70.9203 196.433 71.6602 196.33C72.3951 196.228 73.1702 196.346 73.9856 196.684ZM73.2576 198.412C72.8867 198.258 72.5335 198.235 72.198 198.342C71.8611 198.452 71.5536 198.665 71.2754 198.981C70.9937 199.294 70.7557 199.686 70.5615 200.155C70.3673 200.624 70.2588 201.069 70.2361 201.49C70.2098 201.909 70.2768 202.277 70.4368 202.594C70.5968 202.91 70.8623 203.145 71.2333 203.299C71.6077 203.454 71.9669 203.478 72.3108 203.37C72.6512 203.261 72.9622 203.05 73.2439 202.736C73.5221 202.42 73.7583 202.028 73.9526 201.559C74.1468 201.09 74.257 200.646 74.2833 200.227C74.306 199.805 74.2356 199.436 74.072 199.118C73.9035 198.802 73.6321 198.567 73.2576 198.412Z" fill="white"/>
<path d="M55.7312 200.724L61.5494 190.646L63.6455 191.856L57.8274 201.934L55.7312 200.724Z" fill="white"/>
<path d="M44.2884 192.86L51.3722 183.628L53.2924 185.101L46.2087 194.333L44.2884 192.86Z" fill="white"/>
<path d="M35.6389 167.591C36.0424 168.116 36.2727 168.697 36.3296 169.331C36.3813 169.964 36.2384 170.609 35.9009 171.264C35.5581 171.919 35.0005 172.542 34.2282 173.135C33.4348 173.744 32.6772 174.122 31.9553 174.27C31.2304 174.421 30.5746 174.384 29.9881 174.161C29.3962 173.937 28.9054 173.571 28.5157 173.064C28.2182 172.676 28.0364 172.302 27.9704 171.942C27.899 171.582 27.8998 171.247 27.9729 170.938C28.0408 170.628 28.1355 170.359 28.2573 170.132L28.2123 170.074L24.7414 172.737L23.2714 170.821L32.5031 163.737L33.9559 165.631L32.847 166.481L32.9092 166.563C33.1707 166.505 33.4596 166.486 33.7757 166.506C34.0865 166.526 34.4039 166.619 34.7277 166.786C35.0492 166.95 35.3529 167.218 35.6389 167.591ZM33.6438 168.155C33.4063 167.845 33.1216 167.648 32.7895 167.564C32.4522 167.479 32.0865 167.497 31.6924 167.618C31.2959 167.736 30.8918 167.953 30.4801 168.269C30.0684 168.585 29.7546 168.916 29.5387 169.263C29.3228 169.611 29.2153 169.956 29.216 170.299C29.2167 170.642 29.3359 170.968 29.5734 171.278C29.8155 171.594 30.1052 171.794 30.4425 171.879C30.7799 171.964 31.1429 171.945 31.5318 171.824C31.9206 171.702 32.3149 171.488 32.7145 171.181C33.1172 170.872 33.4307 170.543 33.6549 170.194C33.8738 169.845 33.9885 169.497 33.9991 169.15C34.0044 168.802 33.8859 168.47 33.6438 168.155Z" fill="white"/>
<path d="M28.3537 156.743C28.795 157.508 29.0142 158.263 29.0114 159.008C29.0035 159.752 28.7946 160.443 28.385 161.082C27.972 161.723 27.3785 162.267 26.6043 162.713C25.8236 163.164 25.0541 163.407 24.296 163.443C23.5345 163.48 22.8314 163.315 22.1865 162.948C21.5365 162.58 20.9909 162.014 20.5496 161.249C20.1083 160.485 19.8917 159.731 19.8996 158.987C19.9024 158.242 20.1103 157.549 20.5232 156.908C20.9329 156.269 21.5281 155.724 22.3088 155.274C23.083 154.827 23.8508 154.584 24.6122 154.547C25.3704 154.512 26.0745 154.678 26.7245 155.047C27.3693 155.414 27.9124 155.979 28.3537 156.743ZM26.7242 157.671C26.5234 157.323 26.2574 157.09 25.9261 156.971C25.5915 156.853 25.2179 156.835 24.8053 156.916C24.3908 156.993 23.9638 157.159 23.5242 157.413C23.0846 157.666 22.7276 157.953 22.4533 158.274C22.177 158.591 22.0061 158.923 21.9404 159.272C21.8748 159.62 21.9424 159.968 22.1431 160.316C22.3458 160.667 22.6163 160.905 22.9546 161.028C23.2911 161.149 23.6666 161.171 24.0811 161.093C24.4937 161.012 24.9198 160.845 25.3594 160.591C25.799 160.338 26.1569 160.052 26.4332 159.735C26.7075 159.415 26.8766 159.079 26.9403 158.727C26.9989 158.374 26.9268 158.022 26.7242 157.671Z" fill="white"/>
<path d="M24.1524 149.186L16.9983 154.72L16.0611 152.457L20.9609 148.964L20.9305 148.891L14.974 149.833L14.0542 147.612L18.8921 144.059L18.8638 143.99L12.9692 144.993L12.0343 142.736L21.0039 141.585L21.9845 143.952L17.4877 147.439L17.529 147.538L23.1739 146.824L24.1524 149.186Z" fill="white"/>
<path d="M14.2641 136.823L19.1376 135.517L19.7641 137.855L11.3342 140.114L10.7372 137.886L12.2245 137.487L12.198 137.388C11.6577 137.333 11.1861 137.124 10.783 136.762C10.3763 136.4 10.0892 135.906 9.92153 135.281C9.76467 134.695 9.75596 134.151 9.89541 133.647C10.0349 133.142 10.3101 132.706 10.721 132.337C11.1283 131.969 11.6594 131.697 12.3143 131.522L17.6818 130.084L18.3083 132.422L13.3579 133.748C12.841 133.883 12.4738 134.122 12.2564 134.467C12.0352 134.812 11.9874 135.219 12.1129 135.688C12.1972 136.002 12.3394 136.262 12.5395 136.467C12.7386 136.669 12.9861 136.803 13.2822 136.868C13.5736 136.931 13.9009 136.916 14.2641 136.823Z" fill="white"/>
<path d="M9.26136 105.773L9.39773 107.989C9.20833 108.027 9.03788 108.108 8.88636 108.233C8.73106 108.358 8.60795 108.523 8.51705 108.727C8.42235 108.928 8.375 109.169 8.375 109.449C8.375 109.824 8.45455 110.14 8.61364 110.398C8.76894 110.655 8.97727 110.784 9.23864 110.784C9.44697 110.784 9.62311 110.701 9.76705 110.534C9.91098 110.367 10.0265 110.081 10.1136 109.676L10.4318 108.097C10.6061 107.248 10.8864 106.616 11.2727 106.199C11.6591 105.782 12.1667 105.574 12.7955 105.574C13.3674 105.574 13.8693 105.742 14.3011 106.08C14.733 106.413 15.0701 106.871 15.3125 107.455C15.5511 108.034 15.6705 108.703 15.6705 109.46C15.6705 110.616 15.4299 111.536 14.9489 112.222C14.464 112.903 13.8049 113.303 12.9716 113.42L12.8466 111.04C13.1989 110.968 13.4678 110.794 13.6534 110.517C13.8352 110.241 13.9261 109.886 13.9261 109.455C13.9261 109.03 13.8447 108.689 13.6818 108.432C13.5152 108.17 13.3011 108.038 13.0398 108.034C12.8201 108.038 12.6402 108.131 12.5 108.312C12.3561 108.494 12.2462 108.775 12.1705 109.153L11.8693 110.665C11.6989 111.517 11.4034 112.152 10.983 112.568C10.5625 112.981 10.0265 113.188 9.375 113.188C8.81439 113.188 8.33144 113.036 7.92614 112.733C7.52083 112.426 7.20833 111.996 6.98864 111.443C6.76894 110.886 6.65909 110.235 6.65909 109.489C6.65909 108.386 6.89205 107.519 7.35795 106.886C7.82386 106.25 8.45833 105.879 9.26136 105.773Z" fill="white"/>
<path d="M16.5309 96.7819C16.4142 97.6682 16.126 98.4059 15.6664 98.9949C15.2036 99.5796 14.6135 99.9986 13.8963 100.252C13.1796 100.501 12.3837 100.568 11.5087 100.453C10.6224 100.337 9.8675 100.063 9.24402 99.6336C8.61728 99.1996 8.15791 98.6406 7.86592 97.9564C7.57017 97.2718 7.4799 96.492 7.5951 95.617C7.69448 94.8621 7.91857 94.2192 8.26738 93.6882C8.61618 93.1572 9.0602 92.7591 9.59943 92.4939C10.1387 92.2287 10.7447 92.1232 11.4177 92.1774L11.1195 94.442C10.6792 94.4489 10.3096 94.5722 10.0106 94.8117C9.70841 95.047 9.52836 95.3844 9.47052 95.8238C9.42157 96.1956 9.4802 96.5338 9.64641 96.8384C9.80936 97.1387 10.0722 97.3911 10.435 97.5955C10.7978 97.7999 11.2515 97.938 11.796 98.0096C12.3481 98.0823 12.8274 98.069 13.234 97.9697C13.6411 97.8667 13.9643 97.6895 14.2037 97.4383C14.4431 97.1871 14.5872 96.8756 14.6362 96.5038C14.6723 96.2297 14.6483 95.9763 14.5643 95.7436C14.4808 95.5072 14.3414 95.3036 14.1462 95.1327C13.9476 94.9576 13.6992 94.8274 13.401 94.7423L13.6991 92.4778C14.3551 92.6023 14.9135 92.8592 15.3742 93.2485C15.8317 93.6334 16.1641 94.1261 16.3716 94.7265C16.5791 95.3269 16.6322 96.0121 16.5309 96.7819Z" fill="white"/>
<path d="M18.1935 87.0064L9.76365 84.7476L10.371 82.481L11.8418 82.8751L11.8654 82.7873C11.3833 82.4934 11.0573 82.1296 10.8873 81.6958C10.7136 81.261 10.69 80.8076 10.8164 80.3356C10.8478 80.2186 10.8889 80.0943 10.9398 79.9628C10.9908 79.8314 11.0427 79.7179 11.0958 79.6223L13.1703 80.1782C13.108 80.2791 13.038 80.4231 12.9605 80.6102C12.8829 80.7972 12.8226 80.9712 12.7794 81.1322C12.6873 81.4761 12.6799 81.8036 12.7574 82.1145C12.8322 82.4208 12.9802 82.6879 13.2015 82.9159C13.4237 83.1401 13.7068 83.2983 14.0508 83.3905L18.82 84.6684L18.1935 87.0064Z" fill="white"/>
<path d="M22.8161 73.4856C22.4783 74.301 22.013 74.9344 21.4201 75.3858C20.8252 75.8323 20.1496 76.0875 19.3933 76.1515C18.6335 76.2139 17.8407 76.0741 17.0148 75.732C16.1819 75.387 15.5207 74.9246 15.0311 74.3446C14.5381 73.7632 14.2408 73.105 14.1393 72.37C14.0358 71.6302 14.1529 70.8525 14.4907 70.0371C14.8284 69.2217 15.2947 68.5908 15.8897 68.1443C16.4825 67.6929 17.1589 67.436 17.9187 67.3735C18.6749 67.3096 19.4695 67.4501 20.3024 67.7951C21.1283 68.1372 21.7878 68.5989 22.2808 69.1804C22.7704 69.7603 23.0669 70.4203 23.1705 71.1601C23.2719 71.8951 23.1538 72.6702 22.8161 73.4856ZM21.0881 72.7576C21.2418 72.3867 21.2651 72.0335 21.158 71.698C21.0475 71.3611 20.8346 71.0536 20.5193 70.7754C20.2055 70.4937 19.8141 70.2557 19.3452 70.0615C18.8762 69.8673 18.4312 69.7588 18.0101 69.7361C17.5905 69.7098 17.2225 69.7768 16.9061 69.9368C16.5897 70.0968 16.3547 70.3623 16.201 70.7333C16.0459 71.1077 16.0222 71.4669 16.1299 71.8108C16.239 72.1512 16.4504 72.4622 16.7642 72.7439C17.0795 73.0221 17.4716 73.2583 17.9406 73.4526C18.4095 73.6468 18.8538 73.757 19.2734 73.7833C19.6945 73.806 20.064 73.7356 20.3818 73.572C20.6976 73.4035 20.933 73.1321 21.0881 72.7576Z" fill="white"/>
<path d="M18.7764 55.2312L28.8538 61.0494L27.6436 63.1456L17.5662 57.3274L18.7764 55.2312Z" fill="white"/>
<path d="M26.6403 43.7884L35.8721 50.8722L34.3986 52.7924L25.1668 45.7087L26.6403 43.7884Z" fill="white"/>
<path d="M51.9094 35.1389C51.3835 35.5424 50.8034 35.7727 50.1692 35.8296C49.5356 35.8813 48.8912 35.7384 48.2359 35.4009C47.5814 35.0581 46.9578 34.5005 46.3652 33.7282C45.7564 32.9348 45.378 32.1772 45.2299 31.4553C45.0795 30.7304 45.1158 30.0746 45.3389 29.4881C45.5627 28.8962 45.9286 28.4054 46.4364 28.0157C46.8241 27.7182 47.1979 27.5364 47.5578 27.4704C47.9184 27.399 48.2532 27.3998 48.5624 27.4729C48.8723 27.5408 49.1407 27.6355 49.3679 27.7573L49.4265 27.7123L46.7631 24.2414L48.6789 22.7714L55.7627 32.0031L53.8694 33.4559L53.0185 32.347L52.9374 32.4092C52.9948 32.6707 53.0135 32.9596 52.9935 33.2757C52.9742 33.5865 52.8811 33.9039 52.7142 34.2277C52.5503 34.5492 52.282 34.8529 51.9094 35.1389ZM51.3454 33.1438C51.6549 32.9063 51.8518 32.6216 51.936 32.2895C52.021 31.9522 52.0029 31.5865 51.8819 31.1924C51.7639 30.7959 51.547 30.3918 51.231 29.9801C50.9151 29.5684 50.5836 29.2546 50.2365 29.0387C49.8894 28.8228 49.5443 28.7153 49.2011 28.716C48.8579 28.7167 48.5316 28.8359 48.222 29.0734C47.9065 29.3155 47.7063 29.6052 47.6213 29.9425C47.5364 30.2799 47.5548 30.6429 47.6765 31.0318C47.7982 31.4206 48.0124 31.8149 48.3191 32.2145C48.6281 32.6172 48.9569 32.9307 49.3056 33.1549C49.655 33.3738 50.0033 33.4885 50.3504 33.4991C50.6982 33.5044 51.0299 33.3859 51.3454 33.1438Z" fill="white"/>
<path d="M62.7565 27.8537C61.9922 28.295 61.2374 28.5142 60.4922 28.5114C59.7485 28.5035 59.0571 28.2946 58.4182 27.885C57.7774 27.472 57.2335 26.8785 56.7865 26.1043C56.3358 25.3236 56.0927 24.5541 56.0574 23.796C56.0202 23.0345 56.185 22.3314 56.5519 21.6865C56.9202 21.0365 57.4865 20.4909 58.2508 20.0496C59.0151 19.6083 59.7692 19.3917 60.513 19.3996C61.2582 19.4024 61.9511 19.6103 62.592 20.0232C63.2309 20.4329 63.7757 21.0281 64.2265 21.8088C64.6734 22.583 64.9155 23.3508 64.9528 24.1122C64.9881 24.8704 64.8216 25.5745 64.4533 26.2245C64.0864 26.8693 63.5208 27.4124 62.7565 27.8537ZM61.8288 26.2242C62.1766 26.0234 62.4101 25.7574 62.5293 25.4261C62.6467 25.0915 62.665 24.7179 62.5842 24.3053C62.5068 23.8908 62.3411 23.4638 62.0873 23.0242C61.8335 22.5846 61.5465 22.2276 61.2263 21.9533C60.9093 21.677 60.5766 21.5061 60.2282 21.4404C59.8798 21.3748 59.5317 21.4424 59.184 21.6431C58.8329 21.8458 58.5955 22.1163 58.4715 22.4546C58.3509 22.7911 58.3293 23.1666 58.4068 23.5811C58.4876 23.9937 58.6548 24.4198 58.9086 24.8594C59.1624 25.299 59.4478 25.6569 59.7647 25.9332C60.085 26.2075 60.421 26.3766 60.7727 26.4403C61.1258 26.4989 61.4778 26.4268 61.8288 26.2242Z" fill="white"/>
<path d="M70.3141 23.6524L64.7801 16.4983L67.0426 15.5611L70.5358 20.4609L70.6093 20.4305L69.6672 14.474L71.8877 13.5542L75.4414 18.3921L75.5096 18.3638L74.5071 12.4692L76.7643 11.5343L77.9151 20.5039L75.5477 21.4845L72.0615 16.9877L71.9617 17.029L72.6763 22.6739L70.3141 23.6524Z" fill="white"/>
<path d="M82.6771 13.7641L83.9829 18.6377L81.645 19.2641L79.3862 10.8342L81.6144 10.2372L82.0129 11.7245L82.1117 11.698C82.1669 11.1577 82.3758 10.6861 82.7384 10.2831C83.1 9.87636 83.5937 9.58919 84.2193 9.42155C84.8047 9.26469 85.3495 9.25598 85.8535 9.39544C86.3575 9.53489 86.794 9.81008 87.1629 10.221C87.5309 10.6283 87.8026 11.1594 87.9781 11.8143L89.4163 17.1818L87.0783 17.8083L85.7518 12.8579C85.6173 12.341 85.3777 11.9739 85.0332 11.7564C84.6877 11.5352 84.2807 11.4874 83.8124 11.6129C83.4977 11.6972 83.2378 11.8394 83.0326 12.0395C82.8311 12.2386 82.6974 12.4862 82.6316 12.7822C82.5685 13.0736 82.5837 13.4009 82.6771 13.7641Z" fill="white"/>
</svg>
