<svg width="1920" height="1080" fill="none" xmlns="http://www.w3.org/2000/svg"><path fill-rule="evenodd" clip-rule="evenodd" d="M1920 0H0v1080h1920V0zm-865.45 506.283c.8 3.401 1.55 6.795 2.24 10.182 4.7-13.953 10.5-27.956 17.42-41.83 55.19-110.53 161.06-170.986 236.48-135.053 75.42 35.933 91.83 154.655 36.65 265.185-55.19 110.53-161.06 170.987-236.48 135.054-29.97-14.28-50.63-41.634-61.17-76.352-17.03 48.509-49.3 83.707-92.077 93.343-81.884 18.454-171.28-63.775-199.637-183.696a330.11 330.11 0 01-3.399-16.147 219.417 219.417 0 01-10.999 26.159c-36.732 73.756-107.211 114.113-157.432 90.132-50.22-23.981-61.137-103.232-24.405-176.989 36.732-73.756 107.212-114.112 157.432-90.131 16.042 7.66 28.074 20.96 35.823 37.919 13.323-62.781 49.248-110.057 99.916-121.472 81.884-18.453 171.278 63.776 199.638 183.696z" fill="#fff"/></svg>