<svg width="30" height="30" viewBox="0 0 30 30" fill="none" xmlns="http://www.w3.org/2000/svg">
<g clip-path="url(#clip0_9_6)">
<path fill-rule="evenodd" clip-rule="evenodd" d="M0.2 30C0.0895431 30 0 29.9105 0 29.8V5.00005L4.9415 0.0585787C4.97901 0.0210714 5.02988 0 5.08292 0H14.8C14.9105 0 15 0.0895426 15 0.2V4.51718C15 4.69536 15.2154 4.7846 15.3414 4.6586L19.9414 0.0585787C19.979 0.0210714 20.0298 0 20.0829 0H29.8C29.9105 0 30 0.0895431 30 0.2V9.91711C30 9.97015 29.9789 10.021 29.9414 10.0585L25.1413 14.8586C25.0632 14.9367 25.0632 15.0633 25.1413 15.1414L29.9414 19.9415C29.9789 19.979 30 20.0299 30 20.0829V29.8C30 29.9105 29.9105 30 29.8 30H20.0827C20.0297 30 19.9788 29.9789 19.9413 29.9414L15.1413 25.1414C15.0632 25.0633 14.9366 25.0633 14.8585 25.1414L10.0585 29.9414C10.021 29.9789 9.97015 30 9.91711 30H0.2Z" fill="black"/>
</g>
<defs>
<clipPath id="clip0_9_6">
<rect width="30" height="30" fill="white"/>
</clipPath>
</defs>
</svg>
